Coordinates
version=1
nRows=6
nColumns=63
inDegrees=yes

Units are S.I. units (second, meters, Newtons, ...)
If the header above contains a line with 'inDegrees', this indicates whether rotational values are in degrees (yes) or radians (no).

endheader
time	pelvis_tilt	pelvis_list	pelvis_rotation	pelvis_tx	pelvis_ty	pelvis_tz	hip_flexion_r	hip_adduction_r	hip_rotation_r	knee_angle_r	knee_angle_r_beta	ankle_angle_r	subtalar_angle_r	mtp_angle_r	hip_flexion_l	hip_adduction_l	hip_rotation_l	knee_angle_l	knee_angle_l_beta	ankle_angle_l	subtalar_angle_l	mtp_angle_l	L5_S1_Flex_Ext	L5_S1_Lat_Bending	L5_S1_axial_rotation	L4_L5_Flex_Ext	L4_L5_Lat_Bending	L4_L5_axial_rotation	L3_L4_Flex_Ext	L3_L4_Lat_Bending	L3_L4_axial_rotation	L2_L3_Flex_Ext	L2_L3_Lat_Bending	L2_L3_axial_rotation	L1_L2_Flex_Ext	L1_L2_Lat_Bending	L1_L2_axial_rotation	L1_T12_Flex_Ext	L1_T12_Lat_Bending	L1_T12_axial_rotation	Abs_r3	Abs_r2	Abs_r1	Abs_t1	Abs_t2	neck_flexion	neck_bending	neck_rotation	arm_flex_r	arm_add_r	arm_rot_r	elbow_flex_r	pro_sup_r	wrist_flex_r	wrist_dev_r	arm_flex_l	arm_add_l	arm_rot_l	elbow_flex_l	pro_sup_l	wrist_flex_l	wrist_dev_l
      1.02000000	      2.92121533	     -1.71610875	     96.63772095	      0.17588070	      0.74332746	      0.81706375	      4.42746916	      0.00684183	     12.69534067	      0.82955399	      0.01447845	     24.58228454	    -16.42577569	      0.00000000	      9.29335267	      0.45666440	      4.46437202	     11.31160635	      0.19742477	     32.61761774	     -1.09731155	      0.00000000	      0.14985482	      0.26461365	     -0.26797443	      0.27829538	      0.35193616	     -0.28472283	      0.24619648	      0.64338163	     -0.28472283	      0.17126907	      0.64338163	     -0.23447763	      0.13915518	      0.53960016	     -0.21772923	      0.08562704	      0.40988655	     -0.20098082	      1.07039796	      2.99336256	     -1.49039340	      0.00000000	      0.00000000	     24.48688753	      1.90841338	      3.64287890	     15.35708600	     -5.98009424	     59.82335582	     31.02897415	     81.63745208	      5.76726095	      1.13696873	     18.80746040	     -2.63554138	     68.56591696	     30.43497871	     78.38216955	      6.85563176	     -6.58485923
      1.04000000	      2.89866699	     -1.78960554	     96.42764084	      0.17646349	      0.74317297	      0.81739659	      4.60493976	      0.03785490	     12.71371876	      0.94742886	      0.01653575	     24.44558414	    -16.38393677	      0.00000000	      9.42021023	      0.43177507	      3.85266141	     11.37168780	      0.19847339	     32.73163515	     -0.84868965	      0.00000000	      0.15026596	      0.26337220	     -0.22087373	      0.27905892	      0.35028503	     -0.23467834	      0.24687195	      0.64036317	     -0.23467834	      0.17173897	      0.64036317	     -0.19326451	      0.13953697	      0.53706860	     -0.17945990	      0.08586197	      0.40796354	     -0.16565530	      1.07333474	      2.97931903	     -1.22843341	      0.00000000	      0.00000000	     24.53451306	      1.79765079	      3.79790903	     14.91840658	     -6.09092895	     57.76199751	     31.64254937	     79.46742246	      6.03703951	      1.77409938	     18.67083177	     -2.87257602	     66.94339461	     30.85030294	     75.96789842	      7.69014668	     -6.02204206
      1.06000000	      2.85817687	     -1.80925084	     96.35855554	      0.17678026	      0.74305385	      0.81782460	      4.72625069	      0.03802999	     12.60418885	      1.10219740	      0.01923697	     24.20772990	    -16.38580824	      0.00000000	      9.49586022	      0.46504947	      3.54768431	     11.40197764	      0.19900205	     32.62876082	     -0.98991623	      0.00000000	      0.14229220	      0.25991671	     -0.21421824	      0.26425084	      0.34568922	     -0.22760688	      0.23377185	      0.63196148	     -0.22760688	      0.16262575	      0.63196148	     -0.18744096	      0.13213253	      0.53002215	     -0.17405232	      0.08130576	      0.40261098	     -0.16066368	      1.01637893	      2.94022978	     -1.19141759	      0.00000000	      0.00000000	     24.35186523	      1.72002189	      3.90686486	     14.96899798	     -6.25691984	     57.33147145	     32.07763300	     79.10993193	      5.97578983	      1.40040575	     18.87571798	     -3.14088648	     66.60248122	     31.09712864	     75.66442642	      7.80783512	     -6.24767865
      1.08000000	      2.79110806	     -2.05889425	     95.85718872	      0.17775966	      0.74259344	      0.81816129	      5.20061454	      0.02852924	     12.89723282	      1.40457005	      0.02451437	     24.07360056	    -16.19409958	      0.00000000	      9.78913407	      0.46284926	      2.82715228	     11.48160444	      0.20039180	     32.70067181	     -1.00538245	      0.00000000	      0.16751567	      0.25544368	     -0.12552192	      0.31109334	      0.33974010	     -0.13336704	      0.27521149	      0.62108577	     -0.13336704	      0.19145365	      0.62108577	     -0.10983168	      0.15555505	      0.52090076	     -0.10198656	      0.09571845	      0.39568227	     -0.09414144	      1.19654764	      2.88963005	     -0.69811526	      0.00000000	      0.00000000	     24.18288674	      1.55383887	      4.40089713	     14.34013562	     -6.24738355	     54.92974161	     32.70090227	     76.35740500	      6.12674186	      1.11778734	     18.78982354	     -3.28790283	     65.52083918	     31.21863216	     73.92001203	      8.76025141	     -6.05375530
      1.10000000	      2.68253384	     -2.13964823	     95.54149264	      0.17862459	      0.74222390	      0.81881824	      5.49661410	     -0.02459213	     13.17923098	      1.70748715	      0.02980127	     24.10916585	    -16.11254937	      0.00000000	      9.92610656	      0.46862609	      1.93415348	     11.53762947	      0.20136962	     32.82055930	     -0.51557478	      0.00000000	      0.16313516	      0.24212979	     -0.02053915	      0.30295830	      0.32203263	     -0.02182284	      0.26801475	      0.58871438	     -0.02182284	      0.18644717	      0.58871438	     -0.01797175	      0.15148731	      0.49375108	     -0.01668806	      0.09321543	      0.37505905	     -0.01540436	      1.16525813	      2.73902065	     -0.11423257	      0.00000000	      0.00000000	     23.77571832	      1.11783257	      4.24419153	     13.76443914	     -6.26744846	     51.51203833	     34.29287480	     70.53696075	      7.37778290	      5.15081618	     19.17808127	     -3.74882859	     65.09875358	     32.19129132	     72.68196678	      9.38003876	     -4.72618581
      1.12000000	      2.59910119	     -2.17911248	     95.26693858	      0.17934756	      0.74209506	      0.81953038	      5.79521287	     -0.05715054	     13.32523264	      2.05363496	      0.03584269	     24.13106149	    -16.00613405	      0.00000000	     10.03241836	      0.44398095	      0.95675703	     11.61486826	      0.20271769	     33.04910590	      0.19976235	      0.00000000	      0.15960925	      0.22994698	      0.07566308	      0.29641034	      0.30582949	      0.08039203	      0.26222204	      0.55909310	      0.08039203	      0.18241741	      0.55909310	      0.06620520	      0.14821315	      0.46890789	      0.06147625	      0.09120073	      0.35618788	      0.05674731	      1.14007293	      2.60120628	      0.42081537	      0.00000000	      0.00000000	     23.08819177	      0.67397258	      3.86904098	     13.51341845	     -6.36281781	     48.80283130	     36.46547764	     63.98872634	      6.79733400	     10.25283350	     19.55575112	     -4.40083630	     64.19787490	     33.58779805	     74.75341121	      8.78242497	     -4.97898624
